<svg xmlns="http://www.w3.org/2000/svg" class="viz-root" viewBox="0 0 900 420" width="900" height="420" role="img" aria-labelledby="t d"><title id="t">OpenZSP tuning curves</title><desc id="d">For each calibrated threshold, the number of TRAIN labels the engine gets wrong as the threshold varies, with the all-correct plateau shaded and the value in use marked.</desc><style>
.viz-root { --surface-1:#fcfcfb; --text-primary:#0b0b0b; --text-secondary:#52514e;
  --muted:#898781; --grid:#e1e0d9; --axis:#c3c2b7; --series-1:#2a78d6; --band:#cde2fb; }
@media (prefers-color-scheme: dark) {
  .viz-root { --surface-1:#1a1a19; --text-primary:#ffffff; --text-secondary:#c3c2b7;
    --muted:#898781; --grid:#2c2c2a; --axis:#383835; --series-1:#3987e5; --band:#104281; }
}
text { font-family: system-ui, -apple-system, "Segoe UI", sans-serif; }
.title { font-size:12px; font-weight:600; fill:var(--text-primary); }
.sub { font-size:11px; fill:var(--text-secondary); }
.tick { font-size:10px; fill:var(--muted); font-variant-numeric: tabular-nums; }
.lbl { font-size:10px; fill:var(--text-primary); font-weight:600; }
.lbl-muted { font-size:10px; fill:var(--muted); }
</style><rect width="900" height="420" rx="8" fill="var(--surface-1)"/><text class="title" x="34" y="18">CADENCE_TOLERANCE</text><rect x="85.5" y="46" width="132.4" height="130" fill="var(--band)" opacity="0.55"/><text class="sub" x="34" y="33">all correct: 0.85 – 1.75</text><line x1="34" x2="284" y1="176.0" y2="176.0" stroke="var(--axis)" stroke-width="1"/><text class="tick" x="28" y="179.0" text-anchor="end">0</text><line x1="34" x2="284" y1="46.0" y2="46.0" stroke="var(--grid)" stroke-width="1"/><text class="tick" x="28" y="49.0" text-anchor="end">2</text><path d="M34.0,46.0 H41.4V46.0 H48.7V46.0 H56.1V46.0 H63.4V111.0 H70.8V111.0 H78.1V111.0 H85.5V176.0 H92.8V176.0 H100.2V176.0 H107.5V176.0 H114.9V176.0 H122.2V176.0 H129.6V176.0 H136.9V176.0 H144.3V176.0 H151.6V176.0 H159.0V176.0 H166.4V176.0 H173.7V176.0 H181.1V176.0 H188.4V176.0 H195.8V176.0 H203.1V176.0 H210.5V176.0 H217.8V176.0 H225.2V111.0 H232.5V111.0 H239.9V111.0 H247.2V111.0 H254.6V111.0 H261.9V111.0 H269.3V111.0 H276.6V111.0 H284.0V111.0" fill="none" stroke="var(--series-1)" stroke-width="2" stroke-linejoin="round" stroke-linecap="round"/><line x1="181.1" x2="181.1" y1="46" y2="176" stroke="var(--muted)" stroke-width="1"/><text class="lbl-muted" x="185.1" y="58">was 1.5</text><line x1="144.3" x2="144.3" y1="46" y2="176" stroke="var(--text-primary)" stroke-width="1.5"/><circle cx="144.3" cy="176.0" r="4.5" fill="var(--series-1)" stroke="var(--surface-1)" stroke-width="2"/><text class="lbl" x="149.3" y="168.0" text-anchor="start">1.25</text><text class="tick" x="34.0" y="192" text-anchor="start">0.5</text><text class="tick" x="284.0" y="192" text-anchor="end">2.2</text><text class="title" x="334" y="18">MIN_CADENCE_GAPS</text><rect x="396.5" y="46" width="2.0" height="130" fill="var(--band)" opacity="0.55"/><text class="sub" x="334" y="33">all correct: only at 2</text><line x1="334" x2="584" y1="176.0" y2="176.0" stroke="var(--axis)" stroke-width="1"/><text class="tick" x="328" y="179.0" text-anchor="end">0</text><line x1="334" x2="584" y1="46.0" y2="46.0" stroke="var(--grid)" stroke-width="1"/><text class="tick" x="328" y="49.0" text-anchor="end">2</text><path d="M334.0,111.0 H396.5V176.0 H459.0V111.0 H521.5V46.0 H584.0V46.0" fill="none" stroke="var(--series-1)" stroke-width="2" stroke-linejoin="round" stroke-linecap="round"/><line x1="459.0" x2="459.0" y1="46" y2="176" stroke="var(--muted)" stroke-width="1"/><text class="lbl-muted" x="463.0" y="58">was 3</text><line x1="396.5" x2="396.5" y1="46" y2="176" stroke="var(--text-primary)" stroke-width="1.5"/><circle cx="396.5" cy="176.0" r="4.5" fill="var(--series-1)" stroke="var(--surface-1)" stroke-width="2"/><text class="lbl" x="401.5" y="168.0" text-anchor="start">2</text><text class="tick" x="334.0" y="192" text-anchor="start">1</text><text class="tick" x="584.0" y="192" text-anchor="end">5</text><text class="title" x="634" y="18">PEER_MAX_SAME_DEPT_SHARE</text><rect x="634.0" y="46" width="87.5" height="130" fill="var(--band)" opacity="0.55"/><text class="sub" x="634" y="33">all correct: 0 – 0.175</text><line x1="634" x2="884" y1="176.0" y2="176.0" stroke="var(--axis)" stroke-width="1"/><text class="tick" x="628" y="179.0" text-anchor="end">0</text><line x1="634" x2="884" y1="46.0" y2="46.0" stroke="var(--grid)" stroke-width="1"/><text class="tick" x="628" y="49.0" text-anchor="end">2</text><path d="M634.0,176.0 H646.5V176.0 H659.0V176.0 H671.5V176.0 H684.0V176.0 H696.5V176.0 H709.0V176.0 H721.5V176.0 H734.0V46.0 H746.5V46.0 H759.0V46.0 H771.5V46.0 H784.0V46.0 H796.5V46.0 H809.0V46.0 H821.5V46.0 H834.0V46.0 H846.5V46.0 H859.0V46.0 H871.5V46.0 H884.0V46.0" fill="none" stroke="var(--series-1)" stroke-width="2" stroke-linejoin="round" stroke-linecap="round"/><line x1="759.0" x2="759.0" y1="46" y2="176" stroke="var(--muted)" stroke-width="1"/><text class="lbl-muted" x="763.0" y="58">was 0.25</text><line x1="684.0" x2="684.0" y1="46" y2="176" stroke="var(--text-primary)" stroke-width="1.5"/><circle cx="684.0" cy="176.0" r="4.5" fill="var(--series-1)" stroke="var(--surface-1)" stroke-width="2"/><text class="lbl" x="689.0" y="168.0" text-anchor="start">0.1</text><text class="tick" x="634.0" y="192" text-anchor="start">0</text><text class="tick" x="884.0" y="192" text-anchor="end">0.5</text><text class="title" x="34" y="228">MIN_REPORTING_CONFIDENCE</text><rect x="51.9" y="256" width="160.7" height="130" fill="var(--band)" opacity="0.55"/><text class="sub" x="34" y="243">all correct: 0.1 – 0.55</text><line x1="34" x2="284" y1="386.0" y2="386.0" stroke="var(--axis)" stroke-width="1"/><text class="tick" x="28" y="389.0" text-anchor="end">0</text><line x1="34" x2="284" y1="256.0" y2="256.0" stroke="var(--grid)" stroke-width="1"/><text class="tick" x="28" y="259.0" text-anchor="end">2</text><path d="M34.0,256.0 H42.9V256.0 H51.9V386.0 H60.8V386.0 H69.7V386.0 H78.6V386.0 H87.6V386.0 H96.5V386.0 H105.4V386.0 H114.4V386.0 H123.3V386.0 H132.2V386.0 H141.1V386.0 H150.1V386.0 H159.0V386.0 H167.9V386.0 H176.9V386.0 H185.8V386.0 H194.7V386.0 H203.6V386.0 H212.6V386.0 H221.5V256.0 H230.4V256.0 H239.4V256.0 H248.3V256.0 H257.2V256.0 H266.1V256.0 H275.1V256.0 H284.0V256.0" fill="none" stroke="var(--series-1)" stroke-width="2" stroke-linejoin="round" stroke-linecap="round"/><line x1="141.1" x2="141.1" y1="256" y2="386" stroke="var(--text-primary)" stroke-width="1.5"/><circle cx="141.1" cy="386.0" r="4.5" fill="var(--series-1)" stroke="var(--surface-1)" stroke-width="2"/><text class="lbl" x="146.1" y="378.0" text-anchor="start">0.35</text><text class="tick" x="34.0" y="402" text-anchor="start">0.05</text><text class="tick" x="284.0" y="402" text-anchor="end">0.75</text><text class="title" x="334" y="228">BULK_READ_BASELINE_MULTIPLIER</text><rect x="391.6" y="256" width="145.6" height="130" fill="var(--band)" opacity="0.55"/><text class="sub" x="334" y="243">all correct: 1.7 – 6.5</text><line x1="334" x2="584" y1="386.0" y2="386.0" stroke="var(--axis)" stroke-width="1"/><text class="tick" x="328" y="389.0" text-anchor="end">0</text><line x1="334" x2="584" y1="256.0" y2="256.0" stroke="var(--grid)" stroke-width="1"/><text class="tick" x="328" y="259.0" text-anchor="end">2</text><path d="M334.0,256.0 H353.8V321.0 H370.5V321.0 H385.0V321.0 H391.6V386.0 H397.8V386.0 H409.3V386.0 H433.5V386.0 H453.3V386.0 H470.0V386.0 H484.5V386.0 H508.7V386.0 H528.5V386.0 H537.2V386.0 H545.3V321.0 H559.8V321.0 H584.0V321.0" fill="none" stroke="var(--series-1)" stroke-width="2" stroke-linejoin="round" stroke-linecap="round"/><line x1="453.3" x2="453.3" y1="256" y2="386" stroke="var(--text-primary)" stroke-width="1.5"/><circle cx="453.3" cy="386.0" r="4.5" fill="var(--series-1)" stroke="var(--surface-1)" stroke-width="2"/><text class="lbl" x="458.3" y="378.0" text-anchor="start">3</text><text class="tick" x="334.0" y="402" text-anchor="start">1</text><text class="tick" x="584.0" y="402" text-anchor="end">10</text><text class="title" x="634" y="228">How to read</text><line x1="634" x2="656" y1="252" y2="252" stroke="var(--series-1)" stroke-width="2"/><text class="sub" x="664" y="256">TRAIN labels wrong at that value</text><rect x="634" y="268" width="22" height="12" fill="var(--band)" opacity="0.55"/><text class="sub" x="664" y="278">plateau: every TRAIN label right</text><line x1="645" x2="645" y1="290" y2="306" stroke="var(--text-primary)" stroke-width="1.5"/><text class="sub" x="664" y="302">value in use</text><line x1="645" x2="645" y1="314" y2="330" stroke="var(--muted)" stroke-width="1"/><text class="sub" x="664" y="326">value it replaced</text><text class="lbl-muted" x="634" y="356">Sweeps run on TRAIN only.</text><text class="lbl-muted" x="634" y="370">Multiplier axis is logarithmic.</text></svg>
